<svg width="55" height="57" viewBox="0 0 55 57" fill="none" xmlns="http://www.w3.org/2000/svg">
<g clip-path="url(#clip0_34_722)">
<path d="M52.74 46.65C51.8226 45.724 50.6002 45.1626 49.3 45.07V32.89C49.2974 30.6886 48.4224 28.578 46.8667 27.0204C45.311 25.4628 43.2014 24.5853 41 24.58H28.23V10.8C29.2234 10.6492 30.1554 10.2252 30.9218 9.57538C31.6881 8.92555 32.2588 8.07548 32.57 7.12009C32.8812 6.1647 32.9207 5.14162 32.6841 4.16508C32.4474 3.18854 31.944 2.297 31.23 1.59003C30.6225 0.98184 29.8792 0.526589 29.0614 0.261724C28.2436 -0.0031406 27.3746 -0.0700491 26.5258 0.066503C25.6771 0.203055 24.8729 0.539165 24.1795 1.04718C23.486 1.5552 22.923 2.22061 22.5369 2.98866C22.1508 3.75671 21.9526 4.60546 21.9585 5.46509C21.9645 6.32471 22.1744 7.17064 22.5711 7.93328C22.9678 8.69593 23.5399 9.35349 24.2403 9.85187C24.9407 10.3503 25.7495 10.6752 26.6 10.8V24.58H11.6C9.74352 24.58 7.96304 25.3175 6.65029 26.6303C5.33753 27.943 4.60003 29.7235 4.60003 31.58V44.86C3.39738 45.0438 2.29176 45.6275 1.46173 46.517C0.631701 47.4065 0.125712 48.5498 0.0254785 49.7623C-0.0747554 50.9747 0.236618 52.1856 0.909313 53.1993C1.58201 54.213 2.57676 54.9704 3.73291 55.3491C4.88906 55.7279 6.13913 55.7059 7.28123 55.2867C8.42333 54.8674 9.3908 54.0755 10.0274 53.0387C10.664 52.002 10.9325 50.7809 10.7897 49.5727C10.6468 48.3645 10.1009 47.2397 9.24003 46.38C8.42622 45.5667 7.37626 45.0312 6.24003 44.85V31.57C6.24003 30.1396 6.80759 28.7676 7.81812 27.7552C8.82866 26.7428 10.1996 26.1727 11.63 26.17H26.63V45.35C25.285 45.4918 24.0433 46.1368 23.1539 47.1557C22.2645 48.1747 21.7931 49.4921 21.8344 50.844C21.8757 52.1959 22.4265 53.4822 23.3763 54.4449C24.3262 55.4077 25.605 55.9758 26.9562 56.0353C28.3073 56.0948 29.6311 55.6413 30.6619 54.7657C31.6927 53.8901 32.3544 52.6572 32.5143 51.3142C32.6742 49.9712 32.3205 48.6174 31.5241 47.5242C30.7276 46.4311 29.5474 45.6795 28.22 45.42V26.17H41C42.7815 26.1727 44.4892 26.8815 45.7489 28.1412C47.0085 29.4009 47.7174 31.1086 47.72 32.89V45.19C46.7221 45.4142 45.8077 45.9156 45.0822 46.6367C44.3568 47.3577 43.8497 48.269 43.6194 49.2655C43.3892 50.2621 43.445 51.3035 43.7806 52.2697C44.1162 53.2359 44.7179 54.0876 45.5164 54.7269C46.3148 55.3661 47.2776 55.7669 48.2938 55.8829C49.3101 55.999 50.3384 55.8257 51.2604 55.383C52.1825 54.9402 52.9607 54.2461 53.5056 53.3804C54.0504 52.5148 54.3397 51.5129 54.34 50.49C54.3421 49.7757 54.2017 49.0682 53.927 48.4088C53.6522 47.7494 53.2487 47.1515 52.74 46.65ZM23.59 5.44003C23.5882 4.67917 23.8124 3.93492 24.2342 3.3017C24.656 2.66847 25.2564 2.17483 25.9592 1.88342C26.6621 1.592 27.4356 1.51594 28.1818 1.66489C28.9279 1.81384 29.613 2.18109 30.15 2.72003C30.5104 3.07505 30.796 3.49862 30.9901 3.96576C31.1841 4.43291 31.2827 4.93418 31.28 5.44003C31.2297 6.42587 30.8027 7.35473 30.0871 8.03472C29.3716 8.71471 28.4222 9.09387 27.435 9.09387C26.4479 9.09387 25.4985 8.71471 24.7829 8.03472C24.0674 7.35473 23.6403 6.42587 23.59 5.44003ZM8.15003 47.51C8.51038 47.8651 8.796 48.2886 8.99007 48.7558C9.18414 49.2229 9.28273 49.7242 9.28003 50.23C9.28003 50.9915 9.05424 51.7358 8.63119 52.369C8.20815 53.0021 7.60686 53.4956 6.90337 53.787C6.19987 54.0784 5.42576 54.1546 4.67894 54.0061C3.93211 53.8575 3.24611 53.4908 2.70767 52.9524C2.16924 52.414 1.80256 51.728 1.65401 50.9811C1.50546 50.2343 1.5817 49.4602 1.8731 48.7567C2.1645 48.0532 2.65796 47.4519 3.29109 47.0289C3.92422 46.6058 4.66858 46.38 5.43003 46.38C5.93588 46.3773 6.43715 46.4759 6.9043 46.67C7.37144 46.8641 7.79501 47.1497 8.15003 47.51ZM31 50.76C31 51.5219 30.774 52.2667 30.3505 52.9C29.927 53.5334 29.3251 54.0268 28.621 54.3179C27.917 54.609 27.1423 54.6847 26.3953 54.5353C25.6482 54.3859 24.9622 54.0183 24.4241 53.4788C23.8861 52.9394 23.5202 52.2525 23.3728 51.505C23.2254 50.7575 23.303 49.9831 23.596 49.2798C23.8889 48.5764 24.3839 47.9758 25.0184 47.554C25.6528 47.1322 26.3982 46.908 27.16 46.91C27.6631 46.9021 28.1626 46.9944 28.6296 47.1815C29.0966 47.3687 29.5217 47.6469 29.88 48C30.2434 48.3606 30.53 48.791 30.7225 49.2654C30.915 49.7397 31.0094 50.2482 31 50.76ZM48.9 54.33C48.2692 54.3285 47.6485 54.1715 47.0928 53.8731C46.537 53.5747 46.0634 53.1439 45.7136 52.6189C45.3639 52.0939 45.1489 51.4909 45.0876 50.863C45.0264 50.2352 45.1207 49.602 45.3623 49.0193C45.6039 48.4366 45.9854 47.9223 46.4729 47.5221C46.9605 47.1218 47.5391 46.8478 48.1577 46.7243C48.7763 46.6008 49.4158 46.6317 50.0197 46.814C50.6236 46.9964 51.1732 47.3248 51.62 47.77C52.1541 48.3089 52.517 48.9937 52.6632 49.7382C52.8094 50.4827 52.7324 51.2538 52.4418 51.9547C52.1512 52.6555 51.66 53.2549 51.0299 53.6775C50.3997 54.1001 49.6588 54.3271 48.9 54.33Z" fill="#7199C7"/>
</g>
<defs>
<clipPath id="clip0_34_722">
<rect width="54.33" height="56.19" fill="white"/>
</clipPath>
</defs>
</svg>
