<svg width="67" height="95" viewBox="0 0 67 95" fill="none" xmlns="http://www.w3.org/2000/svg">
<g clip-path="url(#clip0_105_2130)">
<path d="M46.3337 70.9888C46.4555 71.1145 46.6014 71.2146 46.7627 71.2829C46.9239 71.3512 47.0973 71.3864 47.2725 71.3864C47.4476 71.3864 47.621 71.3512 47.7823 71.2829C47.9435 71.2146 48.0894 71.1145 48.2112 70.9888C51.1661 67.7264 59.3452 57.9393 59.3452 47.6955C59.3452 41.6927 57.582 22.0859 35.0038 22.0859C18.1722 22.0859 10.3359 29.9156 10.3359 46.7168C10.3359 58.4613 19.5109 67.8079 22.5311 70.581C22.677 70.7127 22.7932 70.8739 22.872 71.0538C22.9508 71.2338 22.9904 71.4285 22.9882 71.6249V81.412C22.9925 81.7741 23.1383 82.1201 23.3946 82.3762C23.6508 82.6322 23.9972 82.778 24.3596 82.7822H45.7134V92.5693H25.2738C24.9302 92.5693 24.6005 92.7045 24.356 92.9457C24.1115 93.1869 23.9721 93.5147 23.9678 93.8579C23.9721 94.2012 24.1115 94.5289 24.356 94.7701C24.6005 95.0113 24.9302 95.1466 25.2738 95.1465H46.9378C47.1171 95.1487 47.2951 95.1153 47.4613 95.0482C47.6276 94.9811 47.7789 94.8818 47.9065 94.7558C48.0341 94.6299 48.1353 94.4799 48.2044 94.3146C48.2736 94.1492 48.3091 93.9718 48.3091 93.7927V81.4446C48.3091 81.2654 48.2736 81.0881 48.2044 80.9227C48.1353 80.7574 48.0341 80.6074 47.9065 80.4815C47.7789 80.3555 47.6276 80.2561 47.4613 80.1891C47.2951 80.122 47.1171 80.0886 46.9378 80.0907H36.816V59.3747C37.1261 59.3747 47.3296 49.1799 47.3296 49.1799C47.4566 49.0593 47.558 48.9144 47.6277 48.7539C47.6975 48.5933 47.7343 48.4204 47.7358 48.2454C47.7373 48.0704 47.7036 47.8968 47.6366 47.7351C47.5696 47.5734 47.4708 47.4268 47.3459 47.304C47.2261 47.1837 47.0836 47.0882 46.9267 47.023C46.7698 46.9578 46.6016 46.9243 46.4317 46.9243C46.2618 46.9243 46.0936 46.9578 45.9367 47.023C45.7798 47.0882 45.6373 47.1837 45.5175 47.304L35.7221 57.0911L22.8576 45.004C22.6142 44.7698 22.2895 44.6389 21.9516 44.6389C21.6136 44.6389 21.2889 44.7698 21.0455 45.004C20.9221 45.1255 20.8241 45.2702 20.7572 45.4298C20.6903 45.5894 20.6559 45.7608 20.6559 45.9338C20.6559 46.1069 20.6903 46.2782 20.7572 46.4378C20.8241 46.5974 20.9221 46.7422 21.0455 46.8636L33.5508 58.8364C33.6803 58.9576 33.7834 59.1042 33.8537 59.267C33.9239 59.4298 33.9597 59.6053 33.959 59.7825V80.0907H25.584V69.7491L25.1105 69.3576C24.9963 69.2597 12.9317 59.2279 12.9317 46.6842C12.9317 31.4489 19.7394 24.6469 35.0038 24.6469C54.5945 24.6469 56.7494 40.7467 56.7494 47.6629C56.7494 57.0911 49.0601 66.2257 46.3011 69.1944C46.072 69.4391 45.9473 69.7633 45.9534 70.0982C45.9595 70.4332 46.0959 70.7526 46.3337 70.9888Z" fill="#009E97"/>
<path d="M35.0014 11.6793C35.1721 11.6793 35.3412 11.6454 35.4987 11.5796C35.6563 11.5139 35.7992 11.4175 35.9191 11.2961C36.0391 11.1747 36.1338 11.0307 36.1976 10.8725C36.2615 10.7142 36.2932 10.5449 36.2911 10.3743V1.30494C36.2932 1.13435 36.2615 0.965027 36.1976 0.806796C36.1338 0.648564 36.0391 0.504574 35.9191 0.383181C35.7992 0.261787 35.6563 0.165406 35.4987 0.0996281C35.3412 0.0338506 35.1721 -1.36647e-05 35.0014 4.13626e-09C34.655 4.13626e-09 34.3228 0.137485 34.0778 0.38221C33.8329 0.626934 33.6953 0.958852 33.6953 1.30494V10.3743C33.6953 10.7204 33.8329 11.0523 34.0778 11.297C34.3228 11.5418 34.655 11.6793 35.0014 11.6793Z" fill="#009E97"/>
<path d="M8.6166 19.1824C8.73704 19.0627 8.83261 18.9203 8.89783 18.7636C8.96304 18.6068 8.99662 18.4387 8.99662 18.269C8.99662 18.0992 8.96304 17.9311 8.89783 17.7744C8.83261 17.6176 8.73704 17.4753 8.6166 17.3555L2.21699 10.9123C1.97215 10.6683 1.64043 10.5312 1.2946 10.5312C0.948761 10.5312 0.617044 10.6683 0.372205 10.9123C0.251764 11.0321 0.156191 11.1744 0.0909752 11.3312C0.0257597 11.4879 -0.0078125 11.656 -0.0078125 11.8258C-0.0078125 11.9956 0.0257597 12.1637 0.0909752 12.3204C0.156191 12.4772 0.251764 12.6195 0.372205 12.7393L6.77181 19.264C7.02731 19.4975 7.36517 19.6201 7.71111 19.6048C8.05705 19.5895 8.38275 19.4376 8.6166 19.1824Z" fill="#009E97"/>
<path d="M9.96035 20.3231C10.0808 20.2033 10.1764 20.061 10.2416 19.9042C10.3068 19.7475 10.3404 19.5794 10.3404 19.4096C10.3404 19.2398 10.3068 19.0717 10.2416 18.915C10.1764 18.7582 10.0808 18.6159 9.96035 18.4961L3.56074 12.053C3.3159 11.8089 2.98418 11.6719 2.63835 11.6719C2.29251 11.6719 1.96079 11.8089 1.71595 12.053C1.59551 12.1727 1.49994 12.3151 1.43473 12.4718C1.36951 12.6286 1.33594 12.7967 1.33594 12.9664C1.33594 13.1362 1.36951 13.3043 1.43473 13.461C1.49994 13.6178 1.59551 13.7601 1.71595 13.8799L8.11556 20.4046C8.37106 20.6382 8.70892 20.7608 9.05486 20.7455C9.4008 20.7302 9.7265 20.5782 9.96035 20.3231Z" fill="#009E97"/>
<path d="M58.3336 20.3061C58.5784 20.5501 58.9102 20.6872 59.256 20.6872C59.6018 20.6872 59.9336 20.5501 60.1784 20.3061L66.6107 13.9118C66.7336 13.7918 66.8312 13.6485 66.8979 13.4902C66.9646 13.3319 66.999 13.1619 66.999 12.9902C66.999 12.8185 66.9646 12.6485 66.8979 12.4902C66.8312 12.332 66.7336 12.1886 66.6107 12.0686C66.3658 11.8246 66.0341 11.6875 65.6883 11.6875C65.3424 11.6875 65.0107 11.8246 64.7659 12.0686L58.3336 18.4628C58.2107 18.5828 58.113 18.7262 58.0463 18.8845C57.9797 19.0427 57.9453 19.2127 57.9453 19.3844C57.9453 19.5562 57.9797 19.7261 58.0463 19.8844C58.113 20.0427 58.2107 20.186 58.3336 20.3061Z" fill="#009E97"/>
</g>
<defs>
<clipPath id="clip0_105_2130">
<rect width="67" height="95" fill="white"/>
</clipPath>
</defs>
</svg>
