<svg width="57" height="54" viewBox="0 0 57 54" fill="none" xmlns="http://www.w3.org/2000/svg">
<g clip-path="url(#clip0_34_718)">
<path d="M10.4399 43.2301C10.3071 43.2304 10.1763 43.1977 10.0594 43.1348C9.9424 43.072 9.84292 42.981 9.76989 42.8701L0.129891 28.1501C0.0471329 28.0201 0.00317383 27.8692 0.00317383 27.7151C0.00317383 27.561 0.0471329 27.4101 0.129891 27.2801L9.76989 12.5701C9.88526 12.3937 10.066 12.2704 10.2723 12.2273C10.4785 12.1841 10.6935 12.2247 10.8699 12.3401C11.0463 12.4555 11.1696 12.6362 11.2127 12.8425C11.2558 13.0487 11.2153 13.2637 11.0999 13.4401L1.74989 27.7201L11.0999 42.0001C11.2144 42.1784 11.2544 42.3945 11.2114 42.602C11.1684 42.8095 11.0458 42.9919 10.8699 43.1101C10.7396 43.1872 10.5913 43.2286 10.4399 43.2301Z" fill="#7199C7"/>
<path d="M46.4901 43.2301C46.3375 43.2271 46.1887 43.1821 46.0601 43.1001C45.8869 42.9821 45.7662 42.8016 45.7233 42.5965C45.6804 42.3913 45.7187 42.1776 45.8301 42.0001L55.1901 27.7301L45.8301 13.4401C45.773 13.3528 45.7336 13.255 45.7142 13.1525C45.6949 13.0499 45.6959 12.9446 45.7173 12.8425C45.7386 12.7403 45.7799 12.6434 45.8387 12.5572C45.8975 12.471 45.9728 12.3972 46.0601 12.3401C46.1474 12.283 46.2451 12.2436 46.3477 12.2242C46.4502 12.2049 46.5556 12.2059 46.6577 12.2273C46.864 12.2704 47.0447 12.3937 47.1601 12.5701L56.8001 27.2801C56.8837 27.4116 56.9281 27.5642 56.9281 27.7201C56.9281 27.8759 56.8837 28.0286 56.8001 28.1601L47.1601 42.8701C47.087 42.981 46.9876 43.072 46.8706 43.1348C46.7536 43.1977 46.6229 43.2304 46.4901 43.2301Z" fill="#7199C7"/>
<path d="M18.88 53.5601C18.7879 53.558 18.6967 53.5411 18.61 53.5101C18.4181 53.4359 18.2621 53.2905 18.1746 53.1043C18.0871 52.9181 18.0747 52.7052 18.14 52.5101L37.3 0.520112C37.3729 0.322525 37.5214 0.162005 37.7126 0.0738626C37.9039 -0.0142795 38.1224 -0.022823 38.32 0.0501115C38.5176 0.123046 38.6781 0.271484 38.7662 0.462771C38.8544 0.654058 38.8629 0.872525 38.79 1.07011L19.63 53.0001C19.5796 53.1604 19.4801 53.3007 19.3454 53.4012C19.2108 53.5018 19.048 53.5573 18.88 53.5601Z" fill="#7199C7"/>
</g>
<defs>
<clipPath id="clip0_34_718">
<rect width="56.93" height="53.56" fill="white"/>
</clipPath>
</defs>
</svg>
