<svg width="58" height="59" viewBox="0 0 58 59" fill="none" xmlns="http://www.w3.org/2000/svg">
<g clip-path="url(#clip0_34_716)">
<path d="M57.29 12.7L38.61 0.13H38.54H38.44H38.34H38.13L38 0H37.89H37.83L19.48 12.4L1.24 0.13C1.11502 0.0589949 0.973742 0.0216647 0.83 0.0216647C0.686258 0.0216647 0.54498 0.0589949 0.42 0.13C0.299346 0.194851 0.197364 0.289597 0.123823 0.40516C0.0502827 0.520724 0.00764695 0.653235 0 0.79L0 45.38C0.00651485 45.5033 0.0415045 45.6235 0.102227 45.7311C0.16295 45.8386 0.247756 45.9307 0.35 46L19 58.6H19.09H19.16H19.37H19.58H19.65H19.74L38.16 46.34L56.41 58.6C56.5389 58.6906 56.6925 58.7394 56.85 58.74C56.9803 58.7423 57.1086 58.7076 57.22 58.64C57.3486 58.5744 57.4561 58.474 57.5304 58.3502C57.6047 58.2265 57.6426 58.0843 57.64 57.94V13.36C57.6415 13.2295 57.6103 13.1007 57.5492 12.9854C57.488 12.8701 57.3989 12.7719 57.29 12.7ZM1.59 2.29L18.68 13.78V56.45L1.59 45V2.29ZM20.27 13.78L37.37 2.29V45L20.27 56.45V13.78ZM56.05 56.45L39 45V2.29L56.05 13.78V56.45Z" fill="#7199C7"/>
</g>
<defs>
<clipPath id="clip0_34_716">
<rect width="57.64" height="58.74" fill="white"/>
</clipPath>
</defs>
</svg>
