<svg width="59" height="60" viewBox="0 0 59 60" fill="none" xmlns="http://www.w3.org/2000/svg">
<g clip-path="url(#clip0_34_551)">
<path d="M14.3558 59.9999H0.829817C0.721336 60.0013 0.613663 59.981 0.513043 59.9403C0.412423 59.8995 0.32086 59.8391 0.243665 59.7625C0.166471 59.6859 0.105182 59.5947 0.0633537 59.4941C0.0215256 59.3935 -8.68939e-06 59.2856 2.63025e-09 59.1766V29.1818C-8.68939e-06 29.0728 0.0215256 28.9649 0.0633537 28.8643C0.105182 28.7637 0.166471 28.6725 0.243665 28.5959C0.32086 28.5193 0.412423 28.4589 0.513043 28.4181C0.613663 28.3774 0.721336 28.3571 0.829817 28.3585H14.3143C14.4228 28.3571 14.5305 28.3774 14.6311 28.4181C14.7317 28.4589 14.8233 28.5193 14.9005 28.5959C14.9777 28.6725 15.039 28.7637 15.0808 28.8643C15.1226 28.9649 15.1442 29.0728 15.1442 29.1818V59.1766C15.1443 59.3897 15.0623 59.5945 14.9153 59.748C14.7682 59.9016 14.5677 59.9919 14.3558 59.9999ZM1.64926 58.3637H13.5364V29.9635H1.64926V58.3637Z" fill="#E0E0E0"/>
<path d="M36.5223 60H23.0378C22.8204 60 22.612 59.9132 22.4583 59.7588C22.3047 59.6044 22.2183 59.395 22.2183 59.1766V15.0182C22.217 14.9092 22.2371 14.801 22.2777 14.6999C22.3183 14.5988 22.3784 14.5068 22.4546 14.4293C22.5309 14.3517 22.6217 14.2901 22.7218 14.2481C22.8219 14.2061 22.9293 14.1844 23.0378 14.1844H36.5223C36.7424 14.1844 36.9534 14.2723 37.1091 14.4287C37.2647 14.585 37.3521 14.7971 37.3521 15.0182V59.1766C37.3521 59.2856 37.3306 59.3936 37.2888 59.4941C37.2469 59.5947 37.1856 59.6859 37.1084 59.7625C37.0313 59.8391 36.9397 59.8996 36.8391 59.9403C36.7385 59.9811 36.6308 60.0014 36.5223 60ZM23.8572 58.3637H35.7029V15.8416H23.8572V58.3637Z" fill="#E0E0E0"/>
<path d="M58.1702 60H44.6027C44.3854 60 44.177 59.9133 44.0233 59.7589C43.8696 59.6044 43.7833 59.395 43.7833 59.1767V0.833768C43.7819 0.72477 43.8021 0.616584 43.8426 0.515485C43.8832 0.414386 43.9434 0.322387 44.0196 0.244825C44.0958 0.167263 44.1866 0.105682 44.2867 0.0636553C44.3868 0.0216281 44.4942 -8.73076e-06 44.6027 2.64278e-09H58.0872C58.3073 2.64278e-09 58.5184 0.0878431 58.674 0.244205C58.8296 0.400567 58.9171 0.612639 58.9171 0.833768V59.1975C58.9127 59.4002 58.8342 59.5941 58.6963 59.7422C58.5585 59.8903 58.3712 59.9821 58.1702 60ZM45.4637 58.3637H57.3508V1.65711H45.4637V58.3637Z" fill="#E0E0E0"/>
</g>
<defs>
<clipPath id="clip0_34_551">
<rect width="59" height="60" fill="white"/>
</clipPath>
</defs>
</svg>
