<svg width="58" height="58" viewBox="0 0 58 58" fill="none" xmlns="http://www.w3.org/2000/svg">
<g clip-path="url(#clip0_34_727)">
<path d="M7.67 36.55C6.15302 36.55 4.6701 36.1001 3.40878 35.2573C2.14745 34.4145 1.16437 33.2167 0.583847 31.8151C0.00332332 30.4136 -0.148568 28.8715 0.14738 27.3836C0.443329 25.8958 1.17383 24.5291 2.24649 23.4565C3.31916 22.3838 4.68583 21.6533 6.17366 21.3573C7.6615 21.0614 9.20368 21.2133 10.6052 21.7938C12.0067 22.3743 13.2046 23.3574 14.0474 24.6187C14.8902 25.8801 15.34 27.363 15.34 28.88C15.3374 30.9134 14.5284 32.8627 13.0906 34.3006C11.6528 35.7384 9.7034 36.5473 7.67 36.55ZM7.67 22.8C6.46749 22.8 5.29199 23.1566 4.29214 23.8246C3.29229 24.4927 2.513 25.4423 2.05282 26.5533C1.59263 27.6642 1.47223 28.8867 1.70683 30.0661C1.94143 31.2455 2.52049 32.3289 3.37079 33.1792C4.2211 34.0295 5.30445 34.6085 6.48385 34.8431C7.66326 35.0777 8.88574 34.9573 9.99672 34.4972C11.1077 34.037 12.0573 33.2577 12.7253 32.2578C13.3934 31.258 13.75 30.0825 13.75 28.88C13.7474 27.2683 13.1059 25.7233 11.9663 24.5837C10.8266 23.444 9.28171 22.8026 7.67 22.8Z" fill="#7199C7"/>
<path d="M50 15.34C48.483 15.34 47.0001 14.8902 45.7387 14.0474C44.4774 13.2046 43.4943 12.0067 42.9138 10.6052C42.3333 9.20368 42.1814 7.6615 42.4773 6.17366C42.7733 4.68583 43.5038 3.31916 44.5765 2.24649C45.6491 1.17383 47.0158 0.443329 48.5036 0.14738C49.9915 -0.148568 51.5336 0.00332332 52.9351 0.583847C54.3367 1.16437 55.5345 2.14745 56.3773 3.40878C57.2201 4.6701 57.67 6.15302 57.67 7.67C57.6673 9.7034 56.8584 11.6528 55.4205 13.0906C53.9827 14.5284 52.0334 15.3374 50 15.34ZM50 1.59C48.7975 1.59 47.6219 1.94659 46.6221 2.61467C45.6222 3.28275 44.843 4.23231 44.3828 5.34329C43.9226 6.45426 43.8022 7.67675 44.0368 8.85615C44.2714 10.0356 44.8504 11.1189 45.7008 11.9692C46.5511 12.8195 47.6344 13.3986 48.8138 13.6332C49.9932 13.8678 51.2157 13.7474 52.3267 13.2872C53.4376 12.827 54.3872 12.0477 55.0553 11.0479C55.7234 10.048 56.08 8.87251 56.08 7.67C56.0773 6.0583 55.4359 4.51336 54.2962 3.37371C53.1566 2.23407 51.6117 1.59265 50 1.59Z" fill="#7199C7"/>
<path d="M50 57.2199C48.483 57.2199 47.0001 56.77 45.7387 55.9273C44.4774 55.0845 43.4943 53.8866 42.9138 52.4851C42.3333 51.0836 42.1814 49.5414 42.4773 48.0535C42.7733 46.5657 43.5038 45.199 44.5765 44.1264C45.6491 43.0537 47.0158 42.3232 48.5036 42.0273C49.9915 41.7313 51.5336 41.8832 52.9351 42.4637C54.3367 43.0443 55.5345 44.0273 56.3773 45.2887C57.2201 46.55 57.67 48.0329 57.67 49.5499C57.6673 51.5833 56.8584 53.5326 55.4205 54.9705C53.9827 56.4083 52.0334 57.2172 50 57.2199ZM50 43.4699C48.7975 43.4699 47.6219 43.8265 46.6221 44.4945C45.6222 45.1626 44.843 46.1122 44.3828 47.2232C43.9226 48.3341 43.8022 49.5566 44.0368 50.736C44.2714 51.9154 44.8504 52.9988 45.7008 53.8491C46.5511 54.6994 47.6344 55.2785 48.8138 55.5131C49.9932 55.7477 51.2157 55.6273 52.3267 55.1671C53.4376 54.7069 54.3872 53.9276 55.0553 52.9278C55.7234 51.9279 56.08 50.7524 56.08 49.5499C56.0773 47.9382 55.4359 46.3932 54.2962 45.2536C53.1566 44.1139 51.6117 43.4725 50 43.4699Z" fill="#7199C7"/>
<path d="M13.81 26.6C13.6624 26.6003 13.5176 26.5593 13.3921 26.4815C13.2666 26.4037 13.1654 26.2923 13.1 26.16C13.009 25.9699 12.9957 25.7517 13.0629 25.5519C13.1301 25.3522 13.2726 25.1864 13.46 25.09L43.54 9.99999C43.7285 9.90558 43.9467 9.88939 44.147 9.95493C44.3474 10.0205 44.5138 10.1624 44.61 10.35C44.7011 10.5401 44.7144 10.7582 44.6471 10.958C44.5799 11.1578 44.4375 11.3235 44.25 11.42L14.17 26.52C14.0568 26.5712 13.9343 26.5985 13.81 26.6Z" fill="#7199C7"/>
<path d="M43.8701 47.3399C43.749 47.3385 43.6297 47.3112 43.5201 47.2599L13.7401 32.7299C13.5713 32.6255 13.4474 32.462 13.3925 32.2713C13.3375 32.0806 13.3554 31.8763 13.4427 31.698C13.5299 31.5198 13.6803 31.3803 13.8646 31.3068C14.049 31.2332 14.254 31.2308 14.4401 31.2999L44.2201 45.8299C44.3778 45.9117 44.5038 46.0436 44.5782 46.2049C44.6526 46.3662 44.6713 46.5477 44.6312 46.7208C44.591 46.8938 44.4945 47.0486 44.3567 47.1607C44.2189 47.2728 44.0477 47.3359 43.8701 47.3399Z" fill="#7199C7"/>
</g>
<defs>
<clipPath id="clip0_34_727">
<rect width="57.71" height="57.22" fill="white"/>
</clipPath>
</defs>
</svg>
