<svg width="58" height="58" viewBox="0 0 58 58" fill="none" xmlns="http://www.w3.org/2000/svg">
<g clip-path="url(#clip0_34_724)">
<path d="M26 57.1301C19.0937 57.1301 12.4703 54.3866 7.5869 49.5031C2.70345 44.6197 -0.0400391 37.9963 -0.0400391 31.09C-0.0400391 24.1838 2.70345 17.5604 7.5869 12.677C12.4703 7.79354 19.0937 5.05005 26 5.05005V6.64005C21.1663 6.64993 16.4441 8.0923 12.4299 10.7849C8.41572 13.4775 5.28968 17.2995 3.44679 21.768C1.60389 26.2365 1.12683 31.151 2.07587 35.8906C3.02492 40.6301 5.35749 44.982 8.77887 48.3964C12.2002 51.8108 16.5569 54.1345 21.2984 55.0738C26.0398 56.0132 30.9533 55.5261 35.4181 53.6741C39.8828 51.8221 43.6984 48.6882 46.3828 44.6685C49.0672 40.6488 50.5 35.9237 50.5 31.09H52.09C52.082 38.0025 49.3291 44.6288 44.4366 49.512C39.544 54.3952 32.9124 57.1354 26 57.1301Z" fill="#7199C7"/>
<path d="M57.57 32.3201H25.25V5.71421e-05H26C30.1447 -0.00783584 34.2502 0.802033 38.0814 2.38328C41.9126 3.96452 45.3942 6.28607 48.3268 9.21495C51.2594 12.1438 53.5854 15.6225 55.1715 19.4517C56.7576 23.2809 57.5726 27.3854 57.57 31.5301V32.3201ZM26.84 30.7301H56C55.7926 23.0646 52.653 15.7707 47.2279 10.3512C41.8028 4.93169 34.5057 1.79952 26.84 1.60006V30.7301Z" fill="#7199C7"/>
</g>
<defs>
<clipPath id="clip0_34_724">
<rect width="57.57" height="57.13" fill="white"/>
</clipPath>
</defs>
</svg>
