<svg width="49" height="60" viewBox="0 0 49 60" fill="none" xmlns="http://www.w3.org/2000/svg">
<path d="M18.2988 29.7015C15.4243 29.7035 12.6137 28.853 10.2226 27.2575C7.83157 25.6619 5.96741 23.3931 4.86596 20.738C3.76451 18.0829 3.47527 15.1607 4.03481 12.3412C4.59435 9.52163 5.97754 6.93138 8.00941 4.89806C10.0413 2.86474 12.6306 1.47971 15.4497 0.918167C18.2688 0.356624 21.1912 0.643796 23.8471 1.74336C26.503 2.84292 28.7732 4.70547 30.3704 7.09541C31.9676 9.48535 32.8201 12.2953 32.8201 15.1698C32.8174 19.0212 31.2869 22.7143 28.5645 25.4386C25.8421 28.1629 22.1502 29.696 18.2988 29.7015ZM18.2988 2.28951C15.7484 2.28747 13.2547 3.04202 11.1333 4.45767C9.01183 5.87333 7.35801 7.88647 6.38106 10.2423C5.40412 12.5982 5.14798 15.1909 5.64504 17.6924C6.14209 20.194 7.37002 22.4918 9.17343 24.2952C10.9768 26.0986 13.2747 27.3265 15.7762 27.8236C18.2777 28.3207 20.8704 28.0645 23.2263 27.0876C25.5822 26.1106 27.5953 24.4568 29.011 22.3354C30.4266 20.2139 31.1812 17.7202 31.1791 15.1698C31.1737 11.7554 29.8149 8.48244 27.4005 6.0681C24.9862 3.65375 21.7132 2.29497 18.2988 2.28951Z" fill="#E0E0E0"/>
<path d="M36.4736 59.8485H0.825661C0.606682 59.8485 0.396672 59.7615 0.241831 59.6067C0.0869891 59.4518 0 59.2418 0 59.0228L0 46.7102C0 41.764 1.96487 37.0204 5.46235 33.5229C8.95983 30.0254 13.7034 28.0605 18.6496 28.0605C23.5958 28.0605 28.3394 30.0254 31.8369 33.5229C35.3344 37.0204 37.2992 41.764 37.2992 46.7102V59.0228C37.2992 59.2418 37.2123 59.4518 37.0574 59.6067C36.9026 59.7615 36.6926 59.8485 36.4736 59.8485ZM1.641 58.2075H35.6995V46.7102C35.6995 42.1937 33.9054 37.8623 30.7118 34.6687C27.5182 31.4751 23.1867 29.6809 18.6703 29.6809C14.1538 29.6809 9.82236 31.4751 6.62876 34.6687C3.43515 37.8623 1.641 42.1937 1.641 46.7102V58.2075Z" fill="#E0E0E0"/>
<path d="M31.3751 32.7771C29.6497 32.7843 27.9401 32.4486 26.3455 31.7895C24.751 31.1304 23.3032 30.1611 22.0864 28.9378C22.0103 28.862 21.9499 28.772 21.9086 28.6728C21.8674 28.5736 21.8462 28.4672 21.8462 28.3598C21.8462 28.2524 21.8674 28.1461 21.9086 28.0469C21.9499 27.9477 22.0103 27.8576 22.0864 27.7819C22.1607 27.7032 22.2503 27.6404 22.3497 27.5976C22.4491 27.5547 22.5562 27.5326 22.6644 27.5326C22.7726 27.5326 22.8797 27.5547 22.9791 27.5976C23.0785 27.6404 23.1681 27.7032 23.2424 27.7819C24.5781 29.1177 26.2227 30.1034 28.0304 30.6518C29.8381 31.2002 31.7532 31.2943 33.606 30.9257C35.4587 30.5572 37.192 29.7374 38.6523 28.539C40.1125 27.3406 41.2547 25.8006 41.9776 24.0553C42.7005 22.31 42.9819 20.4134 42.7967 18.5334C42.6115 16.6535 41.9656 14.8482 40.916 13.2775C39.8665 11.7068 38.4458 10.4192 36.7798 9.52871C35.1138 8.63824 33.2539 8.17238 31.3648 8.17242C30.8017 8.17192 30.2394 8.21332 29.6825 8.29627C29.4676 8.32774 29.2491 8.27257 29.0749 8.14289C28.9007 8.01321 28.7851 7.81965 28.7536 7.60477C28.7222 7.3899 28.7773 7.17132 28.907 6.99713C29.0367 6.82293 29.2303 6.70738 29.4451 6.67591C31.2259 6.41937 33.0404 6.53189 34.7758 7.00647C36.5112 7.48104 38.1304 8.30753 39.5328 9.43455C40.9352 10.5616 42.0907 11.965 42.9276 13.5576C43.7645 15.1503 44.2649 16.898 44.3975 18.6923C44.5302 20.4865 44.2924 22.2888 43.6988 23.9872C43.1053 25.6856 42.1687 27.2438 40.9473 28.5648C39.726 29.8858 38.2459 30.9415 36.5992 31.6661C34.9524 32.3908 33.1742 32.7689 31.3751 32.7771Z" fill="#E0E0E0"/>
<path d="M47.6924 59.8485H36.4737C36.3658 59.8485 36.2589 59.827 36.1593 59.7854C36.0597 59.7438 35.9694 59.6828 35.8935 59.606C35.8177 59.5292 35.7578 59.4381 35.7175 59.338C35.6771 59.2379 35.657 59.1307 35.6584 59.0228C35.6584 58.8065 35.7443 58.5992 35.8972 58.4463C36.0501 58.2934 36.2575 58.2074 36.4737 58.2074H46.8771V47.9692C46.9101 43.9835 45.3626 40.1469 42.5733 37.2996C39.784 34.4523 35.9801 32.8261 31.9945 32.7771C31.1539 32.7771 30.3148 32.8496 29.4866 32.9938C29.3756 33.0238 29.2597 33.0302 29.1461 33.0128C29.0325 32.9953 28.9238 32.9543 28.827 32.8925C28.7301 32.8306 28.6473 32.7492 28.5837 32.6535C28.5201 32.5578 28.4772 32.4499 28.4577 32.3366C28.4383 32.2234 28.4426 32.1073 28.4706 31.9958C28.4986 31.8844 28.5495 31.78 28.6201 31.6893C28.6907 31.5987 28.7794 31.5237 28.8807 31.4694C28.9819 31.415 29.0933 31.3823 29.2079 31.3735C31.6046 30.9627 34.0624 31.0862 36.4059 31.7354C38.7493 32.3845 40.9204 33.5432 42.7641 35.1286C44.6079 36.714 46.0787 38.687 47.0716 40.9068C48.0644 43.1265 48.5548 45.5381 48.5077 47.9692V59.0228C48.5078 59.24 48.4222 59.4485 48.2696 59.603C48.117 59.7576 47.9096 59.8457 47.6924 59.8485Z" fill="#E0E0E0"/>
</svg>
